<svg xmlns="http://www.w3.org/2000/svg" viewBox="0 0 34.851 34.851">
  <defs>
    <style>
      .cls-1 {
        fill: #9f1121;
      }
    </style>
  </defs>
  <g id="_021-pinterest" data-name="021-pinterest" transform="translate(-1243 -2775)">
    <path id="_021-pinterest-2" data-name="021-pinterest" class="cls-1" d="M34.843,17.936A17.425,17.425,0,1,0,9.815,33.1a.492.492,0,0,0,.706-.461,13.1,13.1,0,0,1,.219-3.283c.221-.949,1.087-4.617,1.657-7.027a8.615,8.615,0,0,0,.087-3.576,7.318,7.318,0,0,1-.126-1.353c0-2.575,1.493-4.5,3.351-4.5a2.327,2.327,0,0,1,2.344,2.609c0,1.589-1.012,3.965-1.534,6.167a2.689,2.689,0,0,0,2.743,3.347c3.292,0,5.823-3.471,5.823-8.482,0-4.435-3.187-7.536-7.737-7.536a8.017,8.017,0,0,0-8.364,8.038,7.206,7.206,0,0,0,1.378,4.227.554.554,0,0,1,.129.531c-.141.585-.453,1.843-.514,2.1-.081.339-.268.411-.619.248C7.043,23.078,5.6,19.7,5.6,16.98c0-5.843,4.245-11.209,12.238-11.209,6.425,0,11.419,4.579,11.419,10.7,0,6.383-4.025,11.521-9.612,11.521a5.452,5.452,0,0,1-3.71-1.421.463.463,0,0,0-.775.209c-.291,1.11-.762,2.9-.914,3.488A16.1,16.1,0,0,1,12.818,33.6a.492.492,0,0,0,.314.712,17.455,17.455,0,0,0,4.459.533A17.719,17.719,0,0,0,34.843,17.936Z" transform="translate(1243.001 2775)"/>
  </g>
</svg>
