<svg xmlns="http://www.w3.org/2000/svg" viewBox="0 0 35.851 35.851">
  <defs>
    <style>
      .cls-1 {
        fill: #a6285f;
      }
    </style>
  </defs>
  <g id="_040-dribbble" data-name="040-dribbble" transform="translate(-1177 -2774)">
    <path id="_040-dribbble-2" data-name="040-dribbble" class="cls-1" d="M17.925,0A17.925,17.925,0,1,0,35.851,17.925,17.925,17.925,0,0,0,17.925,0Zm14.5,16.636a46.448,46.448,0,0,0-9.594.637q-.554-1.329-1.126-2.547c.237-.111.472-.223.7-.339a21.3,21.3,0,0,0,6.962-5.46A14.411,14.411,0,0,1,32.422,16.636ZM26.972,6.525a18.042,18.042,0,0,1-6.771,5.2c-.316-.6-.628-1.163-.93-1.695a65.66,65.66,0,0,0-4.128-6.389,14.711,14.711,0,0,1,2.782-.265A14.443,14.443,0,0,1,26.972,6.525ZM7.635,7.635a14.563,14.563,0,0,1,4.115-2.9,60.985,60.985,0,0,1,4.634,7.032c.209.369.423.756.64,1.158A33.626,33.626,0,0,1,12.5,13.976a43.378,43.378,0,0,1-8.711.488A14.461,14.461,0,0,1,7.635,7.635ZM3.372,17.925c0-.034,0-.069,0-.1.622.033,1.413.06,2.336.06a46.154,46.154,0,0,0,7.242-.564A36.065,36.065,0,0,0,18.56,15.97q.463.98.919,2.041a29.992,29.992,0,0,0-6.128,2.351A21.119,21.119,0,0,0,6.1,26.414,14.445,14.445,0,0,1,3.372,17.925ZM8.429,28.955c2.561-3.75,6.689-6.363,12.3-7.789a53.144,53.144,0,0,1,2.643,10.262A14.588,14.588,0,0,1,8.429,28.955Zm19.787-.739a14.755,14.755,0,0,1-1.711,1.467,56.9,56.9,0,0,0-2.439-9.2,43.657,43.657,0,0,1,8.264-.476A14.443,14.443,0,0,1,28.216,28.216Z" transform="translate(1177 2774)"/>
  </g>
</svg>
