<svg xmlns="http://www.w3.org/2000/svg" viewBox="0 0 216.047 218.7">
  <defs>
    <style>
      .cls-1 {
        fill: #fdb731;
        stroke: #f8b430;
      }
    </style>
  </defs>
  <g id="if_Pet_hospital_3775242" transform="translate(-241.5 -2179.5)">
    <path id="Path_2" data-name="Path 2" class="cls-1" d="M273.041,250.54c-10.5-7.363-19.954-17.47-28.108-30.042a48.336,48.336,0,0,0-81.316,0c-8.153,12.571-17.61,22.68-28.107,30.042a48.4,48.4,0,0,0,27.719,88.114h82.094a48.4,48.4,0,0,0,27.718-88.114Zm-27.719,80.548H163.23a40.838,40.838,0,0,1-23.375-74.356c11.3-7.923,21.426-18.729,30.11-32.119a40.772,40.772,0,0,1,68.622,0C247.27,238,257.4,248.809,268.7,256.732a40.839,40.839,0,0,1-23.375,74.356Z" transform="translate(142.935 2059.047)"/>
    <path id="Path_3" data-name="Path 3" class="cls-1" d="M126.7,205.28V185.909a20.634,20.634,0,0,0-41.269,0V205.28a20.634,20.634,0,1,0,41.269,0Zm-33.7,0V185.909a13.07,13.07,0,1,1,26.14,0V205.28a13.084,13.084,0,0,1-13.07,13.07h0A13.084,13.084,0,0,1,93,205.28Z" transform="translate(156.567 2061.511)"/>
    <path id="Path_4" data-name="Path 4" class="cls-1" d="M381.736,165.273A20.658,20.658,0,0,0,361.1,185.908v19.372a20.634,20.634,0,1,0,41.268,0V185.908A20.658,20.658,0,0,0,381.736,165.273Zm13.069,40.007a13.084,13.084,0,0,1-13.069,13.07h0a13.084,13.084,0,0,1-13.069-13.07V185.908a13.069,13.069,0,1,1,26.138,0Z" transform="translate(54.676 2061.512)"/>
    <path id="Path_5" data-name="Path 5" class="cls-1" d="M193.008,151.7a20.658,20.658,0,0,0,20.635-20.634V111.692a20.634,20.634,0,1,0-41.269,0v19.372A20.658,20.658,0,0,0,193.008,151.7Zm-13.07-40.007a13.07,13.07,0,1,1,26.14,0v19.372a13.07,13.07,0,0,1-26.14,0Z" transform="translate(124.433 2088.943)"/>
    <path id="Path_6" data-name="Path 6" class="cls-1" d="M294.8,151.7a20.658,20.658,0,0,0,20.635-20.634V111.692a20.635,20.635,0,0,0-41.269,0v19.372A20.657,20.657,0,0,0,294.8,151.7Zm-13.07-40.007a13.07,13.07,0,0,1,26.14,0v19.372a13.07,13.07,0,0,1-26.14,0Z" transform="translate(86.811 2088.943)"/>
  </g>
</svg>
