<svg xmlns="http://www.w3.org/2000/svg" viewBox="0 0 136.014 27.5">
  <defs>
    <style>
      .cls-1 {
        fill: #fdb731;
        stroke: #f8b430;
      }

      .cls-2 {
        fill: #3b4046;
        font-size: 24px;
        font-family: Comfortaa-Regular, Comfortaa;
      }
    </style>
  </defs>
  <g id="Symbol_6_1" data-name="Symbol 6 – 1" transform="translate(-81.5 -28.5)">
    <g id="if_Pet_hospital_3775242" transform="translate(82 29)">
      <path id="Path_2" data-name="Path 2" class="cls-1" d="M134.653,204.861a13.544,13.544,0,0,1-3.529-3.772,6.069,6.069,0,0,0-10.21,0,13.543,13.543,0,0,1-3.529,3.772,6.077,6.077,0,0,0,3.48,11.063h10.307a6.077,6.077,0,0,0,3.48-11.063Zm-3.48,10.113H120.866a5.127,5.127,0,0,1-2.935-9.336,14.483,14.483,0,0,0,3.78-4.033,5.119,5.119,0,0,1,8.616,0,14.481,14.481,0,0,0,3.781,4.033,5.127,5.127,0,0,1-2.935,9.336Z" transform="translate(-112.46 -189.814)"/>
      <path id="Path_3" data-name="Path 3" class="cls-1" d="M90.614,170.3v-2.432a2.591,2.591,0,0,0-5.181,0V170.3a2.591,2.591,0,1,0,5.181,0Zm-4.232,0v-2.432a1.641,1.641,0,1,1,3.282,0V170.3a1.643,1.643,0,0,1-1.641,1.641h0A1.643,1.643,0,0,1,86.383,170.3Z" transform="translate(-85.433 -159.4)"/>
      <path id="Path_4" data-name="Path 4" class="cls-1" d="M363.693,165.273a2.594,2.594,0,0,0-2.591,2.591V170.3a2.591,2.591,0,1,0,5.181,0v-2.432A2.594,2.594,0,0,0,363.693,165.273Zm1.641,5.023a1.643,1.643,0,0,1-1.641,1.641h0a1.643,1.643,0,0,1-1.641-1.641v-2.432a1.641,1.641,0,1,1,3.282,0Z" transform="translate(-339.283 -159.399)"/>
      <path id="Path_5" data-name="Path 5" class="cls-1" d="M174.965,98.671a2.594,2.594,0,0,0,2.591-2.591V93.648a2.591,2.591,0,1,0-5.181,0V96.08A2.594,2.594,0,0,0,174.965,98.671Zm-1.641-5.023a1.641,1.641,0,1,1,3.282,0V96.08a1.641,1.641,0,1,1-3.282,0Z" transform="translate(-165.493 -91.057)"/>
      <path id="Path_6" data-name="Path 6" class="cls-1" d="M276.752,98.671a2.594,2.594,0,0,0,2.591-2.591V93.648a2.591,2.591,0,0,0-5.182,0V96.08A2.594,2.594,0,0,0,276.752,98.671Zm-1.641-5.023a1.641,1.641,0,0,1,3.282,0V96.08a1.641,1.641,0,0,1-3.282,0Z" transform="translate(-259.224 -91.057)"/>
    </g>
    <g id="Group_1" data-name="Group 1" transform="translate(114.4 29)">
      <text id="ani" class="cls-2" transform="translate(0 21)"><tspan x="0" y="0">ani</tspan></text>
      <text id="shop" class="cls-2" transform="translate(40.114 21)"><tspan x="0" y="0">shop</tspan></text>
    </g>
  </g>
</svg>
